<svg width="61" height="91" viewBox="0 0 61 91" fill="none" xmlns="http://www.w3.org/2000/svg">
<path d="M54.6334 66C54.4908 66 54.5292 68.7132 53.6024 72.1447C53.0595 74.1616 52.6976 75.427 51.5954 76.5487C50.0325 78.1291 47.9651 78.4054 47 78.4662C47.7513 78.759 48.8974 79.3227 49.9283 80.4113C51.398 81.9695 51.7983 83.7267 52.237 85.6442C52.5166 86.8764 52.8073 88.711 52.6866 90.9821C52.6647 91.3689 52.917 85.3955 56.3114 82.4171C57.9181 81.008 59.832 80.6102 61 80.4776C59.8703 80.1239 57.9565 79.3227 56.7391 77.4605C56.2072 76.6537 55.8508 75.8414 55.5656 73.7803C54.9459 69.3044 54.8089 66.0055 54.6334 66Z" fill="#1195FF"/>
<path d="M11.1971 -4.67553e-05C10.9972 -4.67378e-05 11.0336 3.96258 9.68844 8.96131C8.88864 11.906 8.36151 13.7419 6.74374 15.3779C4.45341 17.6864 1.41782 18.0863 -1.59774e-06 18.1771C1.10881 18.5952 2.78111 19.4132 4.28982 21.0128C6.4529 23.2849 7.03457 25.8479 7.68895 28.6472C8.10703 30.4467 8.5251 33.1188 8.34333 36.427C8.30698 36.9905 8.6887 28.2837 13.6692 23.9393C16.0323 21.8853 18.8316 21.3036 20.5584 21.1037C18.9043 20.5947 16.0868 19.4132 14.3054 16.7048C13.5238 15.5233 12.9967 14.3418 12.5786 11.3425C11.6698 4.81691 11.4698 0.0181303 11.2153 -4.67568e-05L11.1971 -4.67553e-05Z" fill="#1195FF"/>
</svg>
