<svg width="78" height="123" viewBox="0 0 78 123" fill="none" xmlns="http://www.w3.org/2000/svg">
<path d="M8.18182 31.9852C8.35872 31.9852 8.3145 28.5126 9.5086 24.1238C10.2015 21.5378 10.6732 19.9123 12.0885 18.4937C14.0934 16.4692 16.7617 16.1146 18 16.0407C17.027 15.6713 15.5528 14.9472 14.2408 13.5581C12.3538 11.5632 11.8378 9.3171 11.2629 6.86409C10.8943 5.28294 10.5258 2.93337 10.688 0.022278C10.7174 -0.465367 10.3931 7.17441 6.02949 10.9869C3.9656 12.7897 1.50368 13.2921 0 13.4695C1.45946 13.9276 3.90663 14.9472 5.48403 17.3263C6.16216 18.3607 6.61917 19.3951 6.98772 22.0402C7.78378 27.7737 7.96069 31.9852 8.18182 32V31.9852Z" fill="#1195FF"/>
<path d="M62.7174 122.985C62.9972 122.985 62.935 117.658 64.7851 110.951C65.8734 107.006 66.5886 104.519 68.8118 102.324C71.9367 99.2387 76.0722 98.6861 78 98.5634C76.4919 97.9954 74.2066 96.8902 72.1388 94.7566C69.2004 91.7021 68.392 88.2637 67.5214 84.5031C66.9617 82.0778 66.3865 78.486 66.6197 74.0346C66.6663 73.2825 66.1532 84.9789 59.3748 90.8271C56.1721 93.5901 52.332 94.3575 50 94.6338C52.2543 95.3246 56.0788 96.9056 58.5353 100.543C59.5924 102.124 60.3076 103.721 60.8828 107.758C62.1266 116.522 62.3909 122.985 62.7485 123L62.7174 122.985Z" fill="#1195FF"/>
</svg>
