<svg width="211" height="28" viewBox="0 0 211 28" fill="none" xmlns="http://www.w3.org/2000/svg">
<path fill-rule="evenodd" clip-rule="evenodd" d="M132.628 6.09576L131.024 11.8735L137.904 11.878L138.079 11.3005C139.44 6.2879 135.639 5.26202 134.107 5.26202H128.717C126.106 5.26202 122.844 5.57551 121.71 9.62062C120.745 13.1522 120.178 14.7197 121.51 16.4861C122.32 17.5569 124.291 17.8535 127.013 18.4221C129.056 18.8783 128.717 20.1312 128.376 21.4424C128.091 22.4099 127.497 22.9807 126.53 22.9807C125.907 22.9807 125.17 22.5526 125.453 21.5559L126.01 19.3963L119.013 19.3918L118.445 21.4986C117.593 24.2898 119.296 27.0225 123.04 27.0225H126.899C131.891 27.0225 134.356 25.7235 135.78 20.957C136.289 19.248 136.825 17.2591 136.035 15.8591C134.958 13.95 130.439 13.3522 128.943 12.9545C127.98 12.6972 128.245 11.7061 128.445 10.7341C128.882 9.14195 129.255 8.73856 129.815 8.24753L132.101 5.98564C132.319 5.8317 132.681 5.84743 132.628 6.09576ZM25.0879 13.2455C27.2274 13.9848 30.1219 15.7535 28.7521 20.4087C27.2779 25.4213 24.0991 27.0236 18.8787 27.0236H0.0981598L17.6315 10.4971L14.4538 22.1189H16.1561C17.4045 22.1189 18.1989 21.32 18.5394 20.2952L24.2138 0.0157318C28.2993 0.0157318 32.8265 0.486539 31.9309 6.39577C31.1792 11.3578 27.8836 12.5174 25.1284 13.0376C24.9509 13.0601 24.9509 13.2309 25.0879 13.2455Z" fill="currentColor"/>
<path fill-rule="evenodd" clip-rule="evenodd" d="M23.9183 0L4.91075 17.7749L9.87612 0H23.9183Z" fill="currentColor"/>
<path fill-rule="evenodd" clip-rule="evenodd" d="M49.4575 27.0225L55.4723 5.26315H62.5075L56.4926 27.0225H49.4575ZM143.033 11.7612L145.752 9.59253H139.399L140.592 5.26202H155.058L153.812 9.59253H150.009L145.187 27.0225H138.151L141.693 14.2062C141.951 13.1814 142.269 12.3623 143.033 11.7612ZM185.665 6.09576L179.881 27.0225H186.915L191.455 10.5038C192.362 6.9722 190.661 5.26202 188.163 5.26202H176.135L170.121 27.0225H177.157L181.626 10.7285C182.121 9.10151 182.491 8.68126 182.993 8.2172L185.177 5.96655C185.354 5.86205 185.747 5.79013 185.665 6.09576ZM110.636 15.4287L112.063 14.5882C112.397 14.3489 113.389 13.8377 114.695 13.8073H117.93L116.738 18.0232H109.531L108.624 21.2144C108.396 22.0683 109.022 22.6953 109.702 22.6953H115.488L114.296 27.0236H106.126C102.381 27.0236 100.849 23.7774 101.53 21.4998L104.764 9.59366C105.786 5.60585 109.19 5.26315 111.799 5.26315H120.31L119.118 9.59366H113.276C112.196 9.59366 111.63 10.3341 111.516 10.7892L110.278 15.113C110.182 15.3456 110.208 15.6523 110.636 15.4287ZM96.0605 6.09576L94.356 12.2275L101.41 12.2162L101.738 11.0173C103.1 6.00474 99.0157 5.26315 97.483 5.26315H92.1491C89.5389 5.26315 86.1343 5.60585 85.114 9.59366L81.8802 21.4998C81.0296 24.2909 82.7308 27.0236 86.4759 27.0236H97.3134L100.575 15.2411H93.5368L91.4682 22.6964H89.994C89.3704 22.6964 88.6883 22.0683 89.0299 21.1582L91.8581 10.7308C92.0649 10.0779 92.4255 8.87228 93.2244 8.24978L95.5167 5.99913C95.6392 5.86205 96.1425 5.79013 96.0605 6.09576ZM45.1045 6.10138L39.3054 27.0236H46.3978C46.3978 27.0236 47.4574 22.974 48.2698 20.2469C49.008 17.7693 46.2562 16.3737 45.9158 16.3737C45.5742 16.3737 45.5742 15.8602 45.9158 15.8602C47.8439 15.8029 49.7744 15.4613 50.9935 10.9611C52.4284 5.66766 47.7765 5.26427 46.0574 5.26427H35.3906L29.3196 27.0247H36.412L40.9043 10.7364C41.2549 9.4577 41.774 8.6262 42.2999 8.24079L44.6056 5.99913C44.7236 5.86205 45.1742 5.82721 45.1045 6.10138ZM200.642 15.4287L202.069 14.5882C202.403 14.3489 203.397 13.8377 204.701 13.8073H207.936L206.744 18.0232H199.539L198.63 21.2144C198.404 22.0683 199.028 22.6953 199.707 22.6953H205.494L204.302 27.0236H196.133C192.387 27.0236 190.855 23.7774 191.535 21.4998L194.77 9.59366C195.79 5.60585 199.196 5.26315 201.806 5.26315H210.317L209.125 9.59366H203.281C202.203 9.59366 201.635 10.3341 201.523 10.7892L200.285 15.113C200.189 15.3456 200.214 15.6523 200.642 15.4287ZM76.5137 5.26315H66.2436L60.1737 27.0236H70.1595C75.1518 27.0236 77.6485 25.3157 78.5003 22.1256L81.506 11.3027C82.869 6.28903 78.0452 5.26315 76.5137 5.26315ZM75.9507 6.09127L71.8696 20.6391C71.1325 23.0313 69.3179 22.6908 68.4661 22.6908L71.7438 10.7229C72.1281 9.49478 72.5798 8.67564 73.1281 8.23181L75.4069 5.99238C75.5867 5.82721 76.0878 5.81261 75.9507 6.09127ZM166.454 5.26315H162.085C159.475 5.26315 156.071 5.60585 155.051 9.59366L151.816 21.4998C150.964 24.2909 152.667 27.0236 156.411 27.0236H160.1C165.093 27.0236 167.588 25.3157 168.44 22.1256L171.447 11.3027C172.81 6.28903 167.986 5.26315 166.454 5.26315ZM165.835 6.08452L161.58 21.4953C161.297 22.4627 160.502 22.974 159.877 22.974C159.253 22.974 158.516 22.52 158.856 21.6065L161.799 10.7252C162.273 9.15657 162.686 8.64756 163.16 8.21158L165.343 5.96092C165.495 5.82721 165.893 5.85642 165.835 6.08452Z" fill="currentColor"/>
</svg>
