<svg width="156" height="25" viewBox="0 0 156 25" fill="none" xmlns="http://www.w3.org/2000/svg">
<path d="M147.111 0.00184631L144.07 9.25913H127.82L130.861 0.00184631H122.203L114.322 23.9997H122.958L125.999 14.7425H142.249L139.208 23.9997H147.866L155.747 0.00184631H147.111Z" fill="currentColor"/>
<path d="M112.79 11.0795C112.413 10.5023 111.88 10.0361 111.281 9.72532C110.615 9.41453 109.882 9.25913 109.15 9.25913H90.1689L91.2345 5.92917H116.143L118.118 0.00184631H90.5019C89.6583 0.00184631 88.8369 0.157244 88.0599 0.46804C87.1719 0.778837 86.3727 1.24503 85.6624 1.84442C85.0408 2.44382 84.286 3.06541 83.8198 3.8202C83.2648 4.55279 82.7986 5.37418 82.4656 6.23997L81.7108 8.50434C81.511 9.30353 81.4222 10.1249 81.4 10.9463C81.5332 11.7011 81.7108 12.4559 82.0216 12.9221C82.399 13.4993 82.9318 13.9655 83.5312 14.2985C84.175 14.6537 84.9076 14.8535 85.6624 14.8979H104.643L103.578 18.0946H78.6472L76.6937 24.0219H104.31C105.154 24.0219 105.975 23.8665 106.752 23.5558C107.64 23.245 108.439 22.7788 109.15 22.2016C109.771 21.6022 110.526 20.9806 110.992 20.2258C111.569 19.4932 112.013 18.6718 112.346 17.806L113.101 15.5417C113.345 14.7425 113.456 13.9211 113.412 13.0997C113.257 12.3005 113.101 11.5679 112.79 11.0795Z" fill="currentColor"/>
<path d="M78.8026 3.66482C78.6694 2.91002 78.4918 2.31063 78.07 1.82224C77.7592 1.24505 77.2708 0.756652 76.6937 0.468056C76.0277 0.15726 75.2951 -0.0203382 74.5625 0.00186156H52.8734C52.0298 0.00186156 51.2084 0.15726 50.4314 0.468056C49.5434 0.778852 48.722 1.24505 48.0116 1.84444C47.39 2.44383 46.6574 3.06542 46.169 3.82021C45.5918 4.5528 45.1478 5.37419 44.8149 6.23998L39.0429 23.9998H47.7008L53.6281 5.95139H70.0115L68.2134 11.2571H56.6695L54.8491 16.8736H66.3708L64.0842 24.022H72.6089L78.514 6.08459C78.7582 5.2854 78.847 4.48621 78.8026 3.66482Z" fill="currentColor"/>
<path d="M41.0187 3.82021C40.9743 3.13201 40.7745 2.44382 40.4193 1.84443C40.1085 1.22284 39.5535 0.734445 38.9097 0.490248C38.2437 0.157252 37.5111 0.00185416 36.7785 0.0240539H9.1621L7.18632 5.95138H32.2054L28.2539 18.0724H3.23477L1.259 23.9998H29.0086C29.8353 23.978 30.6528 23.8205 31.4284 23.5336C32.2054 23.0896 33.0934 22.6456 33.8482 22.024C34.5808 21.4468 35.2468 20.7808 35.824 20.0482C36.3124 19.3156 36.7119 18.5608 37.0449 17.7616L40.7079 6.23998C41.0409 5.48519 41.1519 4.6416 41.0187 3.82021Z" fill="currentColor"/>
<path d="M17.043 9.25916H2.32459L0.348816 14.7425H15.2226L17.043 9.25916Z" fill="currentColor"/>
</svg>
