<svg width="48" height="29" viewBox="0 0 48 29" fill="none" xmlns="http://www.w3.org/2000/svg">
<path d="M8.43077 0V6.53931H0.957275V22.3538H13.1017V0H8.43077ZM8.43077 18.6837H5.62821V10.3428H8.43077V18.6837Z" fill="currentColor"/>
<path d="M19.641 6.53932H14.9701V22.4205H19.641V6.53932Z" fill="currentColor"/>
<path d="M19.641 0H14.9701V4.67094H19.641V0Z" fill="currentColor"/>
<path d="M21.5094 6.53932V22.3538H28.9829V24.2222H21.5094V28.0256H33.6538V6.53932H21.5094ZM28.9829 18.6838H26.1803V10.3428H28.9829V18.6838Z" fill="currentColor"/>
<path d="M35.5222 6.53932V22.3538H42.9957V24.2222H35.5222V28.0256H47.6667V6.53932H35.5222ZM42.9957 18.6838H40.1932V10.3428H42.9957V18.6838Z" fill="currentColor"/>
</svg>
