<svg width="163" height="28" viewBox="0 0 163 28" fill="none" xmlns="http://www.w3.org/2000/svg">
<g>
<path d="M45.19 6.00549H31.1772L30.2764 8.10741H32.6786L28.8751 16.5151H26.4729L25.472 18.7171H41.2864C45.19 18.7171 47.0917 16.1147 48.5931 12.6115C50.0945 9.50869 51.1955 6.00549 45.19 6.00549ZM42.1872 12.6115C41.3865 14.5133 40.5858 16.5151 38.684 16.5151H35.5812L39.2846 8.10741H41.4866C43.9889 8.40768 42.7878 11.1102 42.1872 12.6115ZM53.0972 6.00549H64.4076L63.4066 8.10741H61.0044L58.302 14.4132C57.3011 17.1156 63.0063 17.9164 64.5076 14.4132L67.2101 8.10741H65.0081L66.009 6.00549H73.2156L72.2147 8.10741H70.0127L67.2101 14.4132C65.1082 18.5169 63.5067 18.7171 57.4012 18.8172C50.3947 18.9173 50.7951 17.1156 51.8961 14.4132L54.6987 8.10741H52.1964L53.0972 6.00549ZM74.9172 8.10741H77.3194L73.7161 16.5151H71.2138L70.313 18.7171H77.6196L78.7206 16.5151H76.3184L79.0209 10.5096L83.3248 18.7171H88.6297L93.334 8.10741H95.536L96.4368 6.00549H89.1301L88.2293 8.10741H90.6315L87.829 14.3131L83.525 6.00549H75.9181L74.9172 8.10741ZM98.3386 8.10741H100.741L97.1375 16.5151H94.7353L93.8344 18.7171H110.55L113.052 12.8117H111.15L107.747 16.5151H103.643L107.247 8.10741H109.449L110.249 6.00549H99.2394L98.3386 8.10741ZM127.866 5.9054C119.158 5.9054 117.756 7.0064 115.654 11.9109C113.252 17.2157 113.152 18.9173 122.761 18.9173C131.469 18.9173 133.07 16.1147 134.772 11.9109C137.074 6.60604 135.973 5.9054 127.866 5.9054ZM128.967 10.7098L127.165 14.9136C126.464 16.415 124.963 16.8154 124.162 16.8154H122.861C122.06 16.8154 119.958 16.6152 120.959 14.0128L122.761 9.90905C123.662 8.30759 124.963 8.00732 125.764 8.00732H127.265C128.066 8.00732 129.867 8.70796 128.967 10.7098ZM155.891 6.00549H139.877L138.876 8.30759H141.278L137.675 16.5151H135.372L134.472 18.7171H145.281L146.282 16.5151H144.18L145.382 13.6124H151.387C156.592 13.6124 156.692 12.2112 157.993 9.70887C158.494 8.00732 160.095 6.00549 155.891 6.00549ZM151.387 9.90905C150.987 10.7098 150.987 11.4104 149.185 11.4104H146.382L147.684 8.30759H150.286C152.288 8.30759 151.487 9.50869 151.387 9.90905ZM9.15706 5.40494L2.15066 0L24.2709 12.4113L2.15066 25.4232L9.55743 19.4177C9.15706 19.5178 8.6566 19.5178 8.25624 19.5178C3.9523 19.5178 0.549194 16.3149 0.549194 12.4113C0.549194 8.50777 4.0524 5.30485 8.25624 5.30485C8.45642 5.40494 8.85679 5.40494 9.15706 5.40494ZM9.05697 19.4177C13.0606 19.4177 16.2636 16.3149 16.2636 12.5114C16.2636 8.70796 13.0606 5.60512 9.05697 5.60512C5.05331 5.60512 1.85038 8.70796 1.85038 12.5114C1.95047 16.3149 5.1534 19.4177 9.05697 19.4177Z" fill="currentColor"/>
<path d="M3.45187 15.1138L3.85224 14.213H5.15343L6.75489 10.91H5.25352L5.65389 10.0092H12.2599C14.6621 10.0092 15.4628 11.4105 15.2627 12.7116C15.1626 13.7126 14.562 15.1138 11.4592 15.1138H3.45187ZM9.75764 14.213C10.9587 14.213 11.7595 13.4123 12.0597 12.6116C12.2599 12.011 12.2599 10.91 10.9587 10.8099H10.0579L8.45645 14.213H9.75764ZM92.9336 25.5233C92.9336 25.6234 92.9336 25.6234 92.9336 25.5233C92.7335 26.0238 93.0337 26.0238 93.7344 26.0238H96.637C97.1375 26.0238 97.4378 25.9237 97.5378 25.6234C97.6379 25.3232 97.3377 25.2231 96.637 25.2231L93.0337 25.123C91.3322 25.123 90.8317 24.8227 91.3322 23.8218C91.5324 23.3213 91.8326 23.0211 92.3331 22.8209C93.0337 22.5206 93.8345 22.5206 95.0356 22.5206H98.5388C100.24 22.5206 100.841 22.8209 100.44 23.7217C100.44 23.8218 100.34 23.9219 100.34 23.9219H98.1384C98.2385 23.6216 98.0383 23.5215 97.5378 23.5215H94.9355C94.2348 23.5215 93.8345 23.5215 93.7344 23.9219C93.6343 24.2222 93.8345 24.2222 94.435 24.3223L98.1384 24.4223C99.8399 24.4223 100.24 24.8227 99.84 25.8236C99.5397 26.4242 99.2394 26.7244 98.4387 26.9246C98.0383 27.0247 97.2376 27.0247 96.1366 27.0247H93.1338C90.8317 27.0247 90.1311 26.8245 90.5314 25.8236C90.5314 25.8236 90.6315 25.6234 90.7316 25.5233H92.9336ZM108.047 23.7217C108.648 23.7217 108.748 23.9219 108.648 24.2222C108.448 24.6225 108.148 24.8227 107.547 24.8227H104.144L104.644 23.7217H108.047ZM108.648 22.6207H102.943L100.941 27.0247H103.243L103.744 25.9237H108.047C109.749 25.9237 110.45 25.4233 111.05 24.3223C111.35 23.5215 111.35 23.1212 110.65 22.8209C110.149 22.6207 109.549 22.6207 108.648 22.6207ZM115.855 25.9237C114.453 25.9237 113.953 25.8236 114.253 25.123L114.553 24.5224C114.854 23.8218 115.454 23.6216 116.956 23.6216H118.457C119.858 23.6216 120.359 23.7217 120.058 24.4223L119.758 25.0229C119.458 25.7235 118.857 25.8236 117.356 25.8236H115.855V25.9237ZM114.754 27.0247H117.456C118.857 27.0247 119.758 27.0247 120.459 26.7244C121.159 26.4242 121.56 26.0238 121.86 25.4233L122.461 24.2222C122.761 23.5215 122.661 23.1212 122.26 22.921C121.76 22.6207 120.859 22.6207 119.458 22.6207H116.755C115.354 22.6207 114.453 22.6207 113.753 22.921C113.052 23.2212 112.652 23.6216 112.351 24.3223L111.851 25.5233C111.551 26.1239 111.551 26.5243 112.051 26.8245C112.552 27.0247 113.452 27.0247 114.754 27.0247ZM130.268 23.7217C130.868 23.7217 130.968 23.9219 130.868 24.2222C130.668 24.6225 130.468 24.8227 129.767 24.8227H126.164L126.664 23.7217H130.268ZM130.868 22.6207H124.863L122.861 27.0247H125.163L125.664 25.9237H129.067C129.767 25.9237 130.068 26.0238 129.867 26.4242L129.567 27.0247H131.869L132.27 26.1239C132.47 25.7235 132.169 25.4233 131.469 25.3232C132.47 25.2231 132.97 24.8227 133.27 24.1221C133.771 22.921 133.07 22.6207 130.868 22.6207ZM136.273 27.0247L137.775 23.7217H134.672L135.172 22.6207H143.68L143.18 23.7217H140.077L138.575 27.0247H136.273ZM161.096 6.00552V6.2057H160.595V7.50689H160.395V6.2057H159.995V6.00552H161.096ZM162.497 7.50689L162.397 6.60607V6.2057C162.397 6.30579 162.297 6.50597 162.297 6.60607L161.997 7.4068H161.797L161.496 6.50597C161.496 6.40588 161.396 6.2057 161.396 6.10561V6.50597L161.296 7.4068H161.096L161.196 5.90543H161.496L161.797 6.70616C161.797 6.80625 161.897 6.90634 161.897 7.10652C161.897 7.00643 161.997 6.80625 161.997 6.70616L162.297 5.90543H162.597L162.697 7.4068H162.497V7.50689Z" fill="currentColor"/>
</g>
</svg>
