<svg width="157" height="28" viewBox="0 0 157 28" fill="none" xmlns="http://www.w3.org/2000/svg">
<path d="M53.5625 8.65712H62.6411C63.5683 6.12707 62.8434 1.77251 50.1844 2.32321C45.3583 2.36719 35.1308 3.15893 32.2383 12.6686C31.3058 16.0907 33.2183 22.6234 45.5395 20.6915C48.527 20.1813 55.1248 18.07 57.9962 20.2693L62.0077 10.3462H49.7621L48.4953 13.9354H51.6623C50.9673 15.364 48.527 16.1558 45.7506 16.2578C43.115 16.1558 41.0688 15.4309 41.3169 12.8797C41.5967 10.2846 44.3026 6.45784 49.7621 6.54581C51.3632 6.5247 53.0118 7.05253 53.5625 8.65712ZM67.073 2.9566H75.3089L68.3416 20.4804H60.1058L67.073 2.9566ZM68.9732 20.4804L85.8654 2.9566H96.2108L97.8998 20.4804H89.4546L89.2435 18.158H79.5297L77.2091 20.4804H68.9732Z" fill="currentColor"/>
<path d="M83.9651 13.5131H88.8212L88.3971 8.87001L83.9651 13.5131Z" fill="#1195FF"/>
<path d="M99.1666 20.4804L106.134 2.9566H116.057L120.702 12.4592L124.502 2.9566H132.101L125.134 20.4804H116.057L110.988 9.71277L106.767 20.4804H99.1666ZM133.581 2.9566L131.681 7.60147H139.28L134.214 20.4804H142.026L147.093 7.60147H154.694L156.594 2.9566H133.581ZM27.8045 14.3576C26.1577 13.1876 21.5392 10.8775 15.3478 15.2022C16.2627 13.5166 20.6155 8.70111 27.8045 11.6129C27.94 12.3959 27.8731 13.6504 27.8045 14.3576Z" fill="currentColor"/>
<path d="M27.1711 9.50165C18.2755 5.19283 12.9638 11.7379 10.0696 14.7799C7.02576 17.6759 1.73694 16.7909 0.990949 16.469C0.811488 15.4678 0.705923 14.5054 0.779819 13.5131C0.705923 6.01976 6.78472 -0.059037 14.2904 0.000783237C17.1782 -0.0305645 19.9977 0.879833 22.3218 2.59414C24.646 4.30845 26.3483 6.73333 27.1711 9.50165ZM27.5934 16.2578C22.067 12.461 18.1734 15.9587 16.8257 17.7357C11.5105 22.8205 2.84186 19.2031 1.62434 18.5785C3.74972 23.6122 8.60924 27.0923 14.2922 27.0237C20.8548 27.0941 26.3371 22.4228 27.5934 16.2578ZM149.037 21.1842C150.876 21.1842 152.363 19.6869 152.363 17.8413C152.363 16.0115 150.876 14.516 149.037 14.516C147.19 14.516 145.694 16.0115 145.694 17.8413C145.694 18.7279 146.047 19.5782 146.674 20.2051C147.3 20.832 148.151 21.1842 149.037 21.1842ZM149.037 20.7443C147.41 20.7443 146.222 19.4758 146.222 17.8413C146.222 16.2226 147.41 14.9558 149.037 14.9558C150.656 14.9558 151.835 16.2226 151.835 17.8413C151.837 19.4758 150.658 20.7443 149.037 20.7443ZM149.574 17.9891C150.234 17.9715 150.744 17.6988 150.744 16.9686C150.744 16.3528 150.41 15.9833 149.424 15.9833H147.797V19.7028H148.254V17.9873H149.09L150.155 19.7028H150.7L149.574 17.9891ZM148.254 17.6284V16.3088H149.319C149.776 16.3088 150.251 16.3792 150.251 16.9598C150.251 17.7164 149.477 17.6284 148.949 17.6284H148.254Z" fill="currentColor"/>
</svg>
