<svg width="119" height="28" viewBox="0 0 119 28" fill="none" xmlns="http://www.w3.org/2000/svg">
<g>
<path fill-rule="evenodd" clip-rule="evenodd" d="M113.925 1.99725L118.918 2.02476C118.918 2.02476 109.635 14.6039 108.877 15.629C108.631 15.961 108.257 16.319 108.068 16.7628C107.588 17.8785 107.096 20.3258 107.096 20.3258L102.527 20.3486C102.527 20.3486 103.238 17.7976 103.209 16.4388C103.183 15.2519 102.577 14.0663 102.237 12.8759C101.894 11.6707 101.427 9.31268 101.427 9.31268H106.124L106.772 11.9041L113.925 1.99725Z" fill="currentColor"/>
<path fill-rule="evenodd" clip-rule="evenodd" d="M104.471 4.65018C105.392 5.20566 105.958 8.27002 105.958 8.27002C105.958 8.27002 101.136 8.34111 98.5123 8.34111H96.2449L93.4915 20.3258H89.2808C89.2808 20.3258 91.9013 7.30148 92.5199 4.94016C92.7204 4.17559 93.8934 4.30682 95.874 4.30682H99.037C101.079 4.30682 103.467 4.04598 104.471 4.65018ZM84.8674 10.487C84.8674 10.487 84.9987 9.71781 84.4222 8.8269C83.9297 8.06745 83.4749 7.89076 82.1791 7.8502C78.5205 7.73528 78.5916 10.4465 78.5916 10.4465L84.8674 10.487ZM88.8353 7.38213C89.3714 9.31618 88.3495 13.8605 88.3495 13.8605C88.3495 13.8605 83.0129 13.7714 80.0898 13.8605C79.1809 13.8882 78.093 13.7617 77.8224 14.1845C77.4418 14.777 77.9616 15.6892 78.4021 16.0745C78.9091 16.5181 79.8968 16.5687 80.2518 16.6137C82.6243 16.9151 87.5898 16.6915 87.5898 16.6915L86.7297 20.5004C86.7297 20.5004 79.7126 20.8524 76.2028 20.0146C75.5098 19.8496 74.8602 19.516 74.4212 19.043C74.3014 18.9137 74.1974 18.7372 74.0842 18.5848C73.9937 18.4631 73.7298 18.0633 73.6114 17.7472C72.8098 15.6111 73.7054 11.5188 74.5832 9.32573C74.6851 9.07165 74.8131 8.74927 74.9478 8.47538C75.1161 8.13389 75.2585 7.74834 75.393 7.54414C75.4835 7.40335 75.5956 7.31267 75.6895 7.1798C75.7979 7.02269 75.924 6.87048 76.0408 6.73458C76.3648 6.35882 76.7324 6.09308 77.1746 5.76301C78.6369 4.6679 81.2833 3.81778 84.4625 4.14319C85.6595 4.26626 87.4672 4.69377 88.3495 5.92478C88.5859 6.25346 88.7027 6.90614 88.8353 7.38237V7.38213ZM69.5221 4.29191L73.6051 4.2679C73.6051 4.2679 71.3296 15.0621 70.1699 20.3258H65.4729C62.1904 20.3258 59.2671 20.7323 58.0232 18.3822C56.8167 16.1004 57.9682 12.3479 58.509 9.79846C58.8913 7.99426 59.6964 4.30659 59.6964 4.30659L63.9268 4.2679C63.9268 4.2679 62.7314 10.0092 62.234 12.8759C62.0559 13.9027 61.6885 14.8696 62.0722 15.6288C62.4365 16.3514 62.9468 16.4032 64.5014 16.4388C64.9939 16.4505 66.607 16.4388 66.607 16.4388L69.5221 4.29191ZM50.4113 12.0658C50.8388 10.547 51.4624 8.89986 51.3831 7.53109C51.2973 6.06721 50.0698 4.73433 49.2777 4.45414C46.8922 3.61195 44.6588 4.78934 43.7712 5.74972C42.6229 6.99355 42.2341 8.44648 41.8276 10.4467C41.525 11.9316 41.277 13.4992 41.8276 14.6572C42.8024 16.7046 45.8425 16.2575 49.1157 16.2771C49.6015 14.975 50.0031 13.5125 50.4113 12.0658ZM56.0799 6.07373C56.5461 9.4649 54.7568 13.208 53.5241 16.4631C54.781 16.5766 55.8824 16.4456 55.9617 16.5393C56.0442 16.6607 55.1192 20.4246 54.7969 20.4344C53.7994 20.4603 50.494 20.4878 49.1157 20.4878C44.618 20.4878 40.4105 20.7808 38.2648 18.5444C37.3935 17.6358 36.7909 16.0775 36.645 14.9812C36.4021 13.1512 36.7066 11.1362 37.131 9.47492C37.515 7.97491 38.007 6.55952 38.7506 5.26371C40.6406 1.96485 43.9283 -0.483878 49.4395 0.0813928C50.5085 0.191417 52.0437 0.659485 53.0027 1.21497C53.0689 1.25389 53.3008 1.43851 53.354 1.47091C54.6498 2.29539 55.8304 4.263 56.0799 6.07373ZM36.1802 4.31149C35.9082 5.55042 35.6362 6.95486 35.3494 8.17911H30.8147C31.166 6.82199 31.435 5.4728 31.7865 4.29214C33.2375 4.29214 34.5867 4.31149 36.1804 4.31149M30.6527 9.31291H35.0257C34.4539 12.4775 33.3217 17.5822 32.4343 21.1356C31.8788 23.3594 31.5079 24.982 30.0049 26.1561C29.8704 26.2615 29.7928 26.2114 29.6809 26.3181C29.404 26.5822 28.1228 26.8885 27.4137 26.9659C26.2606 27.0909 24.9568 26.9822 23.5396 26.9531C23.9104 25.5976 24.33 23.9699 24.6606 22.7549C28.1151 23.1731 28.2025 19.9078 28.8713 16.7628C29.2583 14.9456 30.431 10.0416 30.6527 9.31291Z" fill="currentColor"/>
<path fill-rule="evenodd" clip-rule="evenodd" d="M20.4494 17.5726L20.3557 17.8155C18.7589 20.9251 15.9293 22.8328 11.8934 22.917C10.0066 22.9559 8.20897 22.4717 7.0346 21.9454C4.50032 20.8067 2.36861 18.695 1.2045 16.4388C-0.465442 13.2045 -0.766609 8.70545 2.70567 5.34506C2.75928 5.34506 2.28446 6.07374 2.33807 6.07374L2.2425 6.3847C-0.259614 14.2183 7.44929 20.9316 14.943 20.1638C16.744 19.9792 19.0405 18.9929 20.4494 17.5726Z" fill="currentColor"/>
<path fill-rule="evenodd" clip-rule="evenodd" d="M15.9146 14.3335C17.7999 14.3463 19.7691 13.4652 20.9353 12.2281C19.9151 14.8178 16.961 16.4824 12.9996 15.953C9.6826 15.5092 6.52291 12.1714 6.1975 8.8269C5.9595 6.39285 6.80776 4.94017 8.20567 3.17792C7.71988 4.0996 7.5383 4.81033 7.49308 5.26371C6.96207 10.529 11.6992 14.3057 15.9146 14.3335Z" fill="currentColor"/>
<path fill-rule="evenodd" clip-rule="evenodd" d="M20.7459 7.79357C20.4529 8.46583 18.7654 9.7353 18.0202 9.89405C15.0694 10.5227 13.1796 9.12341 12.1896 7.5311C12.0426 7.29333 11.7705 6.64391 11.7218 6.47864C11.3379 5.17327 11.5144 3.1989 12.6596 2.17699C12.3146 3.14879 12.2642 4.27746 12.4458 5.01127C12.5558 5.45486 12.891 6.22946 13.2265 6.71664C13.8367 7.60406 14.2239 7.81968 15.0078 8.29101C15.361 8.50313 15.7398 8.67329 15.9034 8.71991C16.6468 8.9388 18.2163 9.51526 20.7461 7.79357" fill="currentColor"/>
</g>
</svg>
